# Blender 3.6.0
# www.blender.org
mtllib Rock1.mtl
o Rock1
v -0.024052 0.001513 0.026330
v -0.009087 0.028819 0.011365
v -0.035677 0.000825 -0.038703
v -0.010151 0.028616 -0.011881
v 0.025328 0.002433 0.044314
v 0.014455 0.032192 0.012134
v 0.029185 0.001513 -0.026907
v 0.014732 0.036155 -0.010270
v -0.015005 0.022099 0.017283
v -0.039587 0.017054 -0.016524
v 0.020433 0.026335 -0.016895
v 0.020197 0.022956 0.017478
v 0.002566 0.001513 -0.037933
v 0.002802 0.032192 -0.016000
v -0.001291 0.002433 0.055340
v 0.002567 0.028834 0.016195
v 0.002566 0.022099 0.024561
v 0.002626 0.022956 -0.024943
v -0.046703 0.000825 -0.012085
v -0.014996 0.028597 -0.000230
v 0.040210 0.001513 -0.000289
v 0.019559 0.036155 0.001383
v 0.027711 0.026335 0.000677
v -0.046865 0.017054 0.001047
v 0.002684 0.030513 0.000097
vn -0.3423 0.9289 -0.1414
vn 0.1797 0.6531 -0.7357
vn 0.6602 0.5934 0.4604
vn -0.2516 0.7543 0.6063
vn -0.0775 0.9946 0.0685
vn -0.4952 0.6861 0.5330
vn 0.8099 0.4947 0.3152
vn 0.3180 0.4693 -0.8238
vn -0.8848 0.2877 -0.3665
vn -0.1245 0.6703 -0.7316
vn 0.2120 0.8037 0.5560
vn -0.2828 0.9483 0.1443
vn 0.1735 0.6766 0.7156
vn -0.2651 0.7628 -0.5898
vn -0.3391 0.9338 0.1141
vn -0.7098 0.0938 0.6981
vn 0.8329 0.4328 -0.3450
vn -0.1729 0.9845 0.0293
vn 0.7234 0.6221 -0.2996
vn -0.3609 0.8744 0.3243
vt 0.579133 0.213666
vt 0.484366 0.413964
vt 0.387148 0.413732
vt 0.448613 0.175266
vt 0.233714 0.451786
vt 0.325796 0.499805
vt 0.338740 0.587578
vt 0.252705 0.611117
vt 0.350477 0.711623
vt 0.388981 0.636360
vt 0.465338 0.652628
vt 0.500284 0.747378
vt 0.638010 0.632165
vt 0.546523 0.594353
vt 0.549399 0.492416
vt 0.630663 0.456467
vt 0.435466 0.536562
vt 0.999902 0.772156
vt 0.864423 0.359631
vt 0.216322 0.943694
vt 0.746293 0.997313
vt 0.011462 0.363273
vt 0.000098 0.685890
vt 0.569770 0.018046
vt 0.224798 0.000098
s 0
usemtl Material.014
f 24/1/1 20/2/1 4/3/1 10/4/1
f 18/5/2 14/6/2 8/7/2 11/8/2
f 23/9/3 22/10/3 6/11/3 12/12/3
f 17/13/4 16/14/4 2/15/4 9/16/4
f 25/17/5 20/2/5 2/15/5 16/14/5
f 15/18/6 17/13/6 9/16/6 1/19/6
f 21/20/7 23/9/7 12/12/7 5/21/7
f 13/22/8 18/5/8 11/8/8 7/23/8
f 19/24/9 24/1/9 10/4/9 3/25/9
f 3/25/10 10/4/10 18/5/10 13/22/10
f 5/21/11 12/12/11 17/13/11 15/18/11
f 22/10/12 25/17/12 16/14/12 6/11/12
f 12/12/13 6/11/13 16/14/13 17/13/13
f 10/4/14 4/3/14 14/6/14 18/5/14
f 8/7/15 14/6/15 25/17/15 22/10/15
f 1/19/16 9/16/16 24/1/16 19/24/16
f 7/23/17 11/8/17 23/9/17 21/20/17
f 14/6/18 4/3/18 20/2/18 25/17/18
f 11/8/19 8/7/19 22/10/19 23/9/19
f 9/16/20 2/15/20 20/2/20 24/1/20
