# Blender 3.6.0
# www.blender.org
mtllib Rock2.mtl
o Rock2
v -0.011804 0.000856 0.020971
v -0.003064 0.032322 0.009765
v -0.028663 -0.000771 -0.028434
v -0.008809 0.032224 -0.005311
v 0.027798 0.002373 0.035288
v 0.011407 0.021267 0.005361
v 0.026165 -0.001096 -0.014393
v 0.005287 0.023741 -0.014343
v -0.006511 0.025393 0.017645
v -0.030254 0.016177 -0.013046
v 0.014362 0.013408 -0.011476
v 0.015222 0.011562 0.009449
v 0.002352 0.000293 -0.015942
v -0.005265 0.029666 -0.016595
v 0.005016 0.002345 0.044601
v 0.006671 0.030103 0.010135
v 0.007045 0.021612 0.018892
v -0.006424 0.024590 -0.021317
v -0.035699 0.000579 -0.011446
v -0.010324 0.032766 0.001865
v 0.039319 0.000636 -0.000618
v 0.011244 0.019402 -0.004180
v 0.020499 0.010426 -0.003181
v -0.035245 0.015996 -0.001544
v 0.000897 0.027768 -0.000704
vn -0.5331 0.8217 -0.2016
vn 0.4977 0.3512 -0.7930
vn 0.8011 0.5892 0.1051
vn 0.1362 0.7139 0.6869
vn 0.2843 0.9139 -0.2899
vn -0.5119 0.5324 0.6741
vn 0.4457 0.8894 0.1016
vn 0.2681 0.0814 -0.9599
vn -0.8833 0.2690 -0.3839
vn 0.0325 0.2435 -0.9694
vn 0.4735 0.8085 0.3495
vn 0.6267 0.7068 -0.3282
vn 0.8775 0.3946 0.2727
vn -0.4747 0.7648 -0.4355
vn 0.5608 0.8255 -0.0632
vn -0.6984 -0.0173 0.7155
vn 0.5537 0.7044 -0.4441
vn 0.4301 0.9021 -0.0336
vn 0.7290 0.6480 -0.2206
vn -0.5250 0.7154 0.4611
vt 0.466192 0.794175
vt 0.518981 0.607539
vt 0.567703 0.616005
vt 0.560740 0.811133
vt 0.682985 0.646960
vt 0.643142 0.615020
vt 0.679586 0.543822
vt 0.770626 0.430002
vt 0.718719 0.291996
vt 0.650804 0.436052
vt 0.553913 0.404651
vt 0.539846 0.280936
vt 0.390662 0.409143
vt 0.489728 0.479581
vt 0.483297 0.546127
vt 0.401152 0.556006
vt 0.567548 0.529590
vt 0.000098 0.254596
vt 0.129449 0.653442
vt 0.806213 0.000098
vt 0.248159 0.000098
vt 0.953198 0.587364
vt 0.955635 0.242866
vt 0.485113 0.995439
vt 0.759662 0.999902
s 0
usemtl Material.014
f 24/1/1 20/2/1 4/3/1 10/4/1
f 18/5/2 14/6/2 8/7/2 11/8/2
f 23/9/3 22/10/3 6/11/3 12/12/3
f 17/13/4 16/14/4 2/15/4 9/16/4
f 25/17/5 20/2/5 2/15/5 16/14/5
f 15/18/6 17/13/6 9/16/6 1/19/6
f 21/20/7 23/9/7 12/12/7 5/21/7
f 13/22/8 18/5/8 11/8/8 7/23/8
f 19/24/9 24/1/9 10/4/9 3/25/9
f 3/25/10 10/4/10 18/5/10 13/22/10
f 5/21/11 12/12/11 17/13/11 15/18/11
f 22/10/12 25/17/12 16/14/12 6/11/12
f 12/12/13 6/11/13 16/14/13 17/13/13
f 10/4/14 4/3/14 14/6/14 18/5/14
f 8/7/15 14/6/15 25/17/15 22/10/15
f 1/19/16 9/16/16 24/1/16 19/24/16
f 7/23/17 11/8/17 23/9/17 21/20/17
f 14/6/18 4/3/18 20/2/18 25/17/18
f 11/8/19 8/7/19 22/10/19 23/9/19
f 9/16/20 2/15/20 20/2/20 24/1/20
