# Blender 3.6.0
# www.blender.org
mtllib Tree2.mtl
o Tree2
v -0.094155 -0.000014 -0.078285
v -0.094155 2.414674 -0.078285
v -0.010280 -0.000014 -0.125779
v -0.010280 2.414674 -0.125779
v 0.082612 -0.000014 -0.100053
v 0.082612 2.414674 -0.100053
v 0.130108 -0.000014 -0.016177
v 0.130108 2.414674 -0.016177
v 0.104381 -0.000014 0.076715
v 0.104381 2.414674 0.076715
v 0.020505 -0.000014 0.124209
v 0.020505 2.414674 0.124209
v -0.072387 -0.000014 0.098483
v -0.072387 2.414674 0.098483
v -0.119881 -0.000014 0.014607
v -0.119881 2.414674 0.014607
v -0.094155 0.833294 -0.078285
v -0.010280 0.833294 -0.125779
v 0.082612 0.833294 -0.100053
v 0.130108 0.833294 -0.016177
v 0.104381 0.833294 0.076715
v 0.020505 0.833294 0.124209
v -0.072387 0.833294 0.098483
v -0.119881 0.833294 0.014607
v -0.010280 0.719661 -0.125779
v 0.082612 0.719661 -0.100053
v 0.020505 0.719661 0.124209
v 0.130108 0.719661 -0.016177
v 0.104381 0.719661 0.076715
v -0.072387 0.719661 0.098483
v -0.119881 0.719661 0.014607
v -0.094155 0.719661 -0.078285
v -0.194296 0.815197 0.149872
v -0.226664 0.815197 0.092713
v -0.194296 0.737758 0.149872
v -0.226664 0.737758 0.092713
v -0.232956 0.899977 0.289240
v -0.263277 0.894674 0.231211
v -0.259980 0.830356 0.309722
v -0.290300 0.825053 0.251693
v -0.453582 0.824138 0.435488
v -0.467754 0.828731 0.414832
v -0.453743 0.794807 0.429077
v -0.467916 0.799401 0.408422
v -0.595640 0.935367 0.416941
v -0.599236 0.933968 0.409097
v -0.599222 0.926272 0.420206
v -0.602819 0.924873 0.412362
v -0.010280 0.466306 -0.125779
v 0.082612 0.466306 -0.100053
v 0.020505 0.466306 0.124209
v 0.130108 0.466306 -0.016177
v 0.104381 0.466306 0.076715
v -0.072387 0.466306 0.098483
v -0.119881 0.466306 0.014607
v -0.094155 0.466306 -0.078285
v -0.094155 0.548274 -0.078285
v -0.010280 0.548274 -0.125779
v 0.082612 0.548274 -0.100053
v 0.020505 0.548274 0.124209
v 0.130108 0.548274 -0.016177
v 0.104381 0.548274 0.076715
v -0.072387 0.548274 0.098483
v -0.119881 0.548274 0.014607
v 0.060165 0.594285 -0.295531
v 0.060165 0.550735 -0.295531
v 0.109519 0.594285 -0.281862
v 0.109519 0.550735 -0.281862
v -0.004834 0.655998 -0.411856
v -0.013255 0.625576 -0.408159
v 0.031174 0.645996 -0.412143
v 0.022753 0.615575 -0.408446
v 0.115658 0.646673 -0.515624
v 0.110163 0.633200 -0.518445
v 0.129485 0.639413 -0.507886
v 0.123990 0.625940 -0.510708
v -0.094155 0.633967 -0.078285
v -0.010280 0.633967 -0.125779
v 0.082612 0.633967 -0.100053
v 0.020505 0.633967 0.124209
v 0.130108 0.633967 -0.016177
v 0.104381 0.633967 0.076715
v -0.072387 0.633967 0.098483
v -0.119881 0.633967 0.014607
v 0.418930 0.803106 0.089966
v 0.409218 0.803106 0.125036
v 0.418930 0.770753 0.089966
v 0.409218 0.770753 0.125036
v 0.631658 0.672778 0.143671
v 0.628066 0.675929 0.168927
v 0.623046 0.651658 0.145083
v 0.619454 0.654809 0.170338
v 0.686168 0.701758 0.126597
v 0.684569 0.703161 0.137841
v 0.682334 0.692356 0.127226
v 0.680736 0.693759 0.138469
v 0.005144 1.076592 -0.935112
v 0.191612 1.027094 -0.937914
v 0.370916 1.027094 -0.883523
v 0.517287 1.106533 -0.766951
v 0.681000 1.027094 -0.676330
v 0.799868 1.027094 -0.531491
v 0.835755 1.159816 -0.344524
v 0.942585 1.027094 -0.186942
v 0.919164 1.124805 -0.000473
v 0.942585 1.027094 0.185994
v 0.888193 1.027094 0.365297
v 0.736290 1.205899 0.488062
v 0.681000 1.027094 0.675383
v 0.536161 1.027094 0.794250
v 0.361577 1.084164 0.860028
v 0.191612 1.027094 0.936967
v 0.005144 1.027094 0.955332
v -0.174420 1.109851 0.902256
v -0.360628 1.027094 0.882575
v -0.504821 1.115705 0.762743
v -0.670713 1.027094 0.675383
v -0.771693 1.077399 0.518592
v -0.877906 1.027094 0.365297
v -0.859298 1.201140 0.171474
v -0.950661 1.027094 -0.000473
v -0.919449 1.057726 -0.184387
v -0.877906 1.027094 -0.366245
v -0.759637 1.111302 -0.511484
v -0.670713 1.027094 -0.676330
v -0.507588 1.104055 -0.767832
v -0.360628 1.027094 -0.883523
v -0.181324 1.027094 -0.937914
v 0.005144 3.262148 -0.000473
v 0.005144 1.682699 -0.798200
v 0.169131 1.574049 -0.824893
v 0.326817 1.574049 -0.777059
v 0.448336 1.682699 -0.663758
v 0.599517 1.574049 -0.594847
v 0.668429 1.682699 -0.443667
v 0.781729 1.574049 -0.322146
v 0.829564 1.574049 -0.164461
v 0.802870 1.682699 -0.000473
v 0.829564 1.574049 0.163513
v 0.781729 1.574049 0.321198
v 0.665374 1.676546 0.450247
v 0.599517 1.574049 0.593899
v 0.472139 1.574049 0.698435
v 0.326817 1.574049 0.776112
v 0.160773 1.682699 0.781924
v 0.005144 1.574049 0.840096
v -0.158843 1.574049 0.823945
v -0.316529 1.574049 0.776112
v -0.438048 1.682699 0.662812
v -0.589229 1.574049 0.593899
v -0.658141 1.682699 0.442719
v -0.771441 1.574049 0.321198
v -0.819276 1.574049 0.163513
v -0.835425 1.574049 -0.000473
v -0.777254 1.682699 -0.156103
v -0.771441 1.574049 -0.322146
v -0.693764 1.574049 -0.467470
v -0.558934 1.682699 -0.564551
v -0.461851 1.574049 -0.699382
v -0.300134 1.682699 -0.737476
v -0.158843 1.574049 -0.824893
v 0.005144 3.705687 -0.000473
v 0.012101 2.077915 -0.765742
v 0.161031 2.000535 -0.784165
v 0.296692 2.087517 -0.704329
v 0.449070 2.000535 -0.664855
v 0.570155 2.000535 -0.565484
v 0.638597 2.087517 -0.423733
v 0.743366 2.000535 -0.306254
v 0.752354 2.087517 -0.149103
v 0.804189 2.000535 -0.000473
v 0.788836 2.000535 0.155412
v 0.708999 2.087517 0.291073
v 0.669525 2.000535 0.443452
v 0.543852 2.087517 0.538234
v 0.449070 2.000535 0.663908
v 0.310927 2.000535 0.737747
v 0.153774 2.087517 0.746735
v 0.005144 2.000535 0.798571
v -0.136727 2.085490 0.748267
v -0.300638 2.000535 0.737747
v -0.438781 2.000535 0.663908
v -0.533563 2.087517 0.538234
v -0.659236 2.000535 0.443452
v -0.698710 2.087517 0.291073
v -0.778547 2.000535 0.155412
v -0.793900 2.000535 -0.000473
v -0.742064 2.087517 -0.149103
v -0.733077 2.000535 -0.306254
v -0.628309 2.087517 -0.423733
v -0.559865 2.000535 -0.565484
v -0.418115 2.087517 -0.633926
v -0.300638 2.000535 -0.738695
v -0.150742 2.000535 -0.784165
v 0.005144 3.869020 -0.000473
v 0.005144 2.546871 -0.659888
v 0.142236 2.477824 -0.689680
v 0.257492 2.546871 -0.609693
v 0.395548 2.477824 -0.584754
v 0.502035 2.477824 -0.497364
v 0.553428 2.546871 -0.366825
v 0.654362 2.477824 -0.269388
v 0.651890 2.546871 -0.129119
v 0.707852 2.477824 -0.000473
v 0.694352 2.477824 0.136618
v 0.614364 2.546871 0.251873
v 0.589425 2.477824 0.389931
v 0.471420 2.546871 0.465803
v 0.395548 2.477824 0.583808
v 0.257492 2.546871 0.608746
v 0.142236 2.477824 0.688733
v 0.005144 2.477824 0.702235
v -0.123501 2.546871 0.646270
v -0.263772 2.477824 0.648745
v -0.385259 2.477824 0.583808
v -0.463900 2.526469 0.479999
v -0.579136 2.477824 0.389931
v -0.604075 2.546871 0.251873
v -0.684063 2.477824 0.136618
v -0.654269 2.546871 -0.000473
v -0.684063 2.477824 -0.137566
v -0.644073 2.477824 -0.269388
v -0.543139 2.546871 -0.366825
v -0.491746 2.477824 -0.497364
v -0.385259 2.477824 -0.584754
v -0.247203 2.546871 -0.609693
v -0.131947 2.477824 -0.689680
v 0.005144 3.598503 -0.000473
vn -0.4927 -0.0000 -0.8702
vn 0.2669 -0.0000 -0.9637
vn 0.8702 -0.0000 -0.4927
vn 0.9637 -0.0000 0.2669
vn 0.4927 -0.0000 0.8702
vn -0.2669 -0.0000 0.9637
vn -0.0000 1.0000 -0.0000
vn -0.8702 -0.0000 0.4927
vn -0.9637 -0.0000 -0.2669
vn -0.0000 -1.0000 -0.0000
vn 0.3884 -0.0000 0.9215
vn 0.3449 -0.0000 -0.9386
vn -0.4586 -0.8406 0.2883
vn -0.1187 -0.9906 0.0672
vn -0.5904 -0.0000 -0.8071
vn -0.1187 0.9906 0.0672
vn 0.1197 -0.9911 -0.0587
vn 0.9150 -0.1143 0.3868
vn -0.9195 0.1167 -0.3753
vn 0.5262 0.7868 -0.3226
vn 0.0712 0.0745 -0.9947
vn 0.5452 -0.0307 0.8377
vn -0.6737 0.0806 -0.7346
vn -0.2286 0.9660 0.1206
vn -0.8425 0.4422 0.3075
vn 0.6086 0.7358 -0.2970
vn -0.6425 -0.6950 0.3227
vn -0.1499 -0.0662 0.9865
vn 0.1121 -0.9075 -0.4048
vn -0.0249 -0.8705 -0.4916
vn 0.9892 -0.0000 0.1464
vn -0.0653 0.9696 0.2357
vn -0.9236 -0.0000 -0.3833
vn 0.2857 0.9280 0.2393
vn -0.8158 0.1211 0.5655
vn 0.0455 0.9173 0.3955
vn 0.8092 -0.1209 -0.5750
vn 0.4829 -0.0136 -0.8756
vn 0.6913 -0.2053 0.6928
vn -0.2594 -0.9000 -0.3503
vn -0.6468 0.1903 -0.7385
vn -0.1738 0.0539 0.9833
vn -0.2530 0.9649 -0.0701
vn -0.1566 -0.0000 0.9877
vn 0.3926 -0.9133 0.1087
vn 0.5346 -0.1626 0.8293
vn 0.5004 0.8633 0.0652
vn -0.4814 -0.8744 -0.0605
vn 0.2179 -0.0608 -0.9741
vn 0.9157 -0.3616 0.1753
vn -0.5047 0.8449 -0.1772
vn 0.5932 -0.7842 0.1822
vn -0.3333 0.0731 -0.9400
vn 0.0902 0.3916 -0.9157
vn 0.2671 0.3916 -0.8805
vn 0.4338 0.3916 -0.8115
vn 0.5837 0.3916 -0.7113
vn 0.7113 0.3916 -0.5837
vn 0.8115 0.3916 -0.4337
vn 0.8805 0.3916 -0.2671
vn 0.9157 0.3916 -0.0902
vn 0.9157 0.3916 0.0902
vn 0.8805 0.3916 0.2671
vn 0.8115 0.3916 0.4337
vn 0.7113 0.3916 0.5837
vn 0.5837 0.3916 0.7113
vn 0.4338 0.3916 0.8115
vn 0.2671 0.3916 0.8805
vn 0.0902 0.3916 0.9157
vn -0.0902 0.3916 0.9157
vn -0.2671 0.3916 0.8805
vn -0.4338 0.3916 0.8115
vn -0.5837 0.3916 0.7113
vn -0.7113 0.3916 0.5837
vn -0.8115 0.3916 0.4338
vn -0.8805 0.3916 0.2671
vn -0.9157 0.3916 0.0902
vn -0.9157 0.3916 -0.0902
vn -0.8805 0.3916 -0.2671
vn -0.8115 0.3916 -0.4338
vn -0.7113 0.3916 -0.5837
vn -0.5837 0.3916 -0.7113
vn -0.4338 0.3916 -0.8115
vn -0.2671 0.3916 -0.8805
vn -0.0902 0.3916 -0.9157
vn 0.0912 0.3653 -0.9264
vn 0.2702 0.3653 -0.8908
vn 0.4388 0.3653 -0.8210
vn 0.5905 0.3653 -0.7196
vn 0.7196 0.3653 -0.5905
vn 0.8210 0.3653 -0.4388
vn 0.8908 0.3653 -0.2702
vn 0.9264 0.3653 -0.0912
vn 0.9264 0.3653 0.0912
vn 0.8908 0.3653 0.2702
vn 0.8169 0.3650 0.4466
vn 0.7196 0.3653 0.5905
vn 0.5905 0.3653 0.7196
vn 0.4388 0.3653 0.8210
vn 0.2702 0.3653 0.8908
vn 0.0912 0.3653 0.9264
vn -0.0912 0.3653 0.9264
vn -0.2702 0.3653 0.8908
vn -0.4388 0.3653 0.8210
vn -0.5905 0.3653 0.7196
vn -0.7196 0.3653 0.5905
vn -0.8210 0.3653 0.4388
vn -0.8908 0.3653 0.2702
vn -0.9264 0.3653 0.0912
vn -0.9264 0.3653 -0.0912
vn -0.8908 0.3653 -0.2702
vn -0.8210 0.3653 -0.4388
vn -0.7196 0.3653 -0.5905
vn -0.5905 0.3653 -0.7196
vn -0.4388 0.3653 -0.8210
vn -0.2702 0.3653 -0.8908
vn -0.0912 0.3653 -0.9264
vn 0.8115 0.3916 -0.4338
vn 0.8115 0.3916 0.4338
vn -0.2595 0.3913 0.8829
vn -0.8115 0.3916 -0.4337
vn -0.0822 0.3913 -0.9166
vn 0.0832 0.5294 -0.8443
vn 0.2463 0.5294 -0.8118
vn 0.3999 0.5294 -0.7482
vn 0.5382 0.5294 -0.6558
vn 0.6558 0.5294 -0.5382
vn 0.7482 0.5294 -0.3999
vn 0.8118 0.5294 -0.2463
vn 0.8443 0.5294 -0.0831
vn 0.8443 0.5294 0.0831
vn 0.8118 0.5294 0.2463
vn 0.7482 0.5294 0.3999
vn 0.6558 0.5294 0.5382
vn 0.5382 0.5294 0.6558
vn 0.3999 0.5294 0.7482
vn 0.2463 0.5294 0.8118
vn 0.0832 0.5294 0.8443
vn -0.0831 0.5294 0.8443
vn -0.2463 0.5294 0.8118
vn -0.3999 0.5294 0.7482
vn -0.5382 0.5294 0.6558
vn -0.6499 0.5289 0.5458
vn -0.7482 0.5294 0.3999
vn -0.8118 0.5294 0.2463
vn -0.8443 0.5294 0.0831
vn -0.8443 0.5294 -0.0831
vn -0.8118 0.5294 -0.2463
vn -0.7482 0.5294 -0.3999
vn -0.6558 0.5294 -0.5382
vn -0.5382 0.5294 -0.6558
vn -0.3999 0.5294 -0.7482
vn -0.2463 0.5294 -0.8118
vn -0.0832 0.5294 -0.8443
vt 1.000000 0.672550
vt 1.000000 1.000000
vt 0.875000 1.000000
vt 0.875000 0.672550
vt 0.750000 1.000000
vt 0.750000 0.672550
vt 0.625000 1.000000
vt 0.625000 0.672550
vt 0.500000 1.000000
vt 0.500000 0.672550
vt 0.375000 1.000000
vt 0.375000 0.672550
vt 0.250000 1.000000
vt 0.250000 0.672550
vt 0.419706 0.419706
vt 0.250000 0.490000
vt 0.080294 0.419706
vt 0.010000 0.250000
vt 0.080294 0.080294
vt 0.250000 0.010000
vt 0.419706 0.080294
vt 0.490000 0.250000
vt 0.125000 1.000000
vt 0.125000 0.672550
vt 0.000000 1.000000
vt 0.000000 0.672550
vt 0.750000 0.490000
vt 0.919706 0.419706
vt 0.990000 0.250000
vt 0.919706 0.080294
vt 0.750000 0.010000
vt 0.580294 0.080294
vt 0.510000 0.250000
vt 0.580294 0.419706
vt 0.125000 0.649020
vt 0.000000 0.649020
vt 0.250000 0.649020
vt 0.375000 0.649020
vt 0.500000 0.649020
vt 0.625000 0.649020
vt 0.750000 0.649020
vt 0.875000 0.649020
vt 1.000000 0.649020
vt 1.000000 0.631276
vt 0.875000 0.631276
vt 0.750000 0.631276
vt 0.625000 0.631276
vt 0.500000 0.631276
vt 0.375000 0.631276
vt 0.250000 0.631276
vt 0.125000 0.631276
vt 0.000000 0.631276
vt 0.125000 0.500000
vt 0.125000 0.596559
vt 0.000000 0.596559
vt 0.000000 0.500000
vt 0.250000 0.500000
vt 0.250000 0.596559
vt 0.375000 0.500000
vt 0.375000 0.596559
vt 0.500000 0.500000
vt 0.500000 0.596559
vt 0.625000 0.500000
vt 0.625000 0.596559
vt 0.750000 0.500000
vt 0.750000 0.596559
vt 0.875000 0.500000
vt 0.875000 0.596559
vt 1.000000 0.500000
vt 1.000000 0.596559
vt 0.125000 0.613532
vt 0.000000 0.613532
vt 0.250000 0.613532
vt 0.375000 0.613532
vt 0.500000 0.613532
vt 0.625000 0.613532
vt 0.750000 0.613532
vt 1.000000 0.613532
vt 0.875000 0.613532
vt 0.250000 0.484685
vt 0.250000 0.250000
vt 0.296821 0.485389
vt 0.341844 0.471731
vt 0.378597 0.442460
vt 0.419705 0.419706
vt 0.449552 0.383337
vt 0.458564 0.336390
vt 0.485388 0.296822
vt 0.479507 0.250000
vt 0.485388 0.203178
vt 0.471731 0.158156
vt 0.433588 0.127330
vt 0.419705 0.080294
vt 0.383336 0.050447
vt 0.339499 0.033931
vt 0.296821 0.014612
vt 0.250000 0.010000
vt 0.204912 0.023327
vt 0.158156 0.028269
vt 0.121949 0.058359
vt 0.080294 0.080294
vt 0.054938 0.119664
vt 0.028269 0.158156
vt 0.032941 0.206824
vt 0.017837 0.296180
vt 0.028269 0.341844
vt 0.057965 0.378313
vt 0.080294 0.419706
vt 0.121254 0.442681
vt 0.158156 0.471731
vt 0.203178 0.485389
vt 0.250000 0.477767
vt 0.376540 0.439381
vt 0.439381 0.376541
vt 0.471731 0.341844
vt 0.477767 0.250000
vt 0.438509 0.121310
vt 0.341844 0.028269
vt 0.294435 0.026609
vt 0.203178 0.014612
vt 0.123459 0.060619
vt 0.060618 0.123459
vt 0.014611 0.203178
vt 0.026609 0.294435
vt 0.050447 0.383337
vt 0.088944 0.411056
vt 0.116663 0.449553
vt 0.162837 0.460429
vt 0.252089 0.479855
vt 0.337569 0.461409
vt 0.383336 0.449553
vt 0.440263 0.377130
vt 0.474431 0.294642
vt 0.490000 0.250000
vt 0.461409 0.162432
vt 0.449552 0.116663
vt 0.411805 0.088195
vt 0.294642 0.025569
vt 0.207388 0.025109
vt 0.116663 0.050447
vt 0.088194 0.088195
vt 0.050447 0.116663
vt 0.038591 0.162432
vt 0.025569 0.294642
vt 0.059737 0.377130
vt 0.122870 0.440263
vt 0.250000 0.475213
vt 0.336186 0.458070
vt 0.437258 0.375122
vt 0.470886 0.293937
vt 0.458070 0.163815
vt 0.409250 0.090750
vt 0.336186 0.041930
vt 0.206063 0.029114
vt 0.089804 0.085902
vt 0.041930 0.163815
vt 0.024787 0.250000
vt 0.014611 0.296822
vt 0.062742 0.375122
vt 0.163814 0.458070
s 0
usemtl Material.004
f 130/112/86 162/81/86 131/82/86
f 131/82/87 162/81/87 132/83/87
f 132/83/88 162/81/88 133/113/88
f 133/113/89 162/81/89 134/85/89
f 134/85/90 162/81/90 135/114/90
f 135/114/91 162/81/91 136/115/91
f 136/115/92 162/81/92 137/88/92
f 137/88/93 162/81/93 138/116/93
f 138/116/94 162/81/94 139/90/94
f 139/90/95 162/81/95 140/91/95
f 140/91/96 162/81/96 141/117/96
f 141/117/97 162/81/97 142/93/97
f 142/93/98 162/81/98 143/94/98
f 143/94/99 162/81/99 144/118/99
f 144/118/100 162/81/100 145/119/100
f 145/119/101 162/81/101 146/97/101
f 146/97/102 162/81/102 147/120/102
f 147/120/103 162/81/103 148/99/103
f 148/99/104 162/81/104 149/121/104
f 149/121/105 162/81/105 150/101/105
f 150/101/106 162/81/106 151/122/106
f 151/122/107 162/81/107 152/103/107
f 152/103/108 162/81/108 153/123/108
f 153/123/109 162/81/109 154/18/109
f 154/18/110 162/81/110 155/124/110
f 155/124/111 162/81/111 156/106/111
f 156/106/112 162/81/112 157/125/112
f 157/125/113 162/81/113 158/126/113
f 158/126/114 162/81/114 159/127/114
f 159/127/115 162/81/115 160/128/115
f 160/128/116 162/81/116 161/111/116
f 161/111/117 162/81/117 130/112/117
f 196/147/123 228/81/123 197/82/123
f 197/82/124 228/81/124 198/148/124
f 198/148/125 228/81/125 199/131/125
f 199/131/126 228/81/126 200/85/126
f 200/85/127 228/81/127 201/149/127
f 201/149/128 228/81/128 202/115/128
f 202/115/129 228/81/129 203/150/129
f 203/150/130 228/81/130 204/134/130
f 204/134/131 228/81/131 205/90/131
f 205/90/132 228/81/132 206/151/132
f 206/151/133 228/81/133 207/136/133
f 207/136/134 228/81/134 208/152/134
f 208/152/135 228/81/135 209/94/135
f 209/94/136 228/81/136 210/153/136
f 210/153/137 228/81/137 211/96/137
f 211/96/138 228/81/138 212/97/138
f 212/97/139 228/81/139 213/154/139
f 213/154/140 228/81/140 214/99/140
f 214/99/141 228/81/141 215/140/141
f 215/140/142 228/81/142 216/155/142
f 216/155/143 228/81/143 217/142/143
f 217/142/144 228/81/144 218/156/144
f 218/156/145 228/81/145 219/123/145
f 219/123/146 228/81/146 220/157/146
f 220/157/147 228/81/147 221/158/147
f 221/158/148 228/81/148 222/106/148
f 222/106/149 228/81/149 223/159/149
f 223/159/150 228/81/150 224/108/150
f 224/108/151 228/81/151 225/127/151
f 225/127/152 228/81/152 226/160/152
f 226/160/153 228/81/153 227/111/153
f 227/111/154 228/81/154 196/147/154
usemtl Material.003
f 17/1/1 2/2/1 4/3/1 18/4/1
f 18/4/2 4/3/2 6/5/2 19/6/2
f 19/6/3 6/5/3 8/7/3 20/8/3
f 20/8/4 8/7/4 10/9/4 21/10/4
f 21/10/5 10/9/5 12/11/5 22/12/5
f 22/12/6 12/11/6 14/13/6 23/14/6
f 4/15/7 2/16/7 16/17/7 14/18/7 12/19/7 10/20/7 8/21/7 6/22/7
f 23/14/8 14/13/8 16/23/8 24/24/8
f 24/24/9 16/23/9 2/25/9 17/26/9
f 1/27/10 3/28/10 5/29/10 7/30/10 9/31/10 11/32/10 13/33/10 15/34/10
f 31/35/9 24/24/9 17/26/9 32/36/9
f 30/37/11 23/14/11 33/14/11 35/37/11
f 27/38/6 22/12/6 23/14/6 30/37/6
f 29/39/5 21/10/5 22/12/5 27/38/5
f 28/40/4 20/8/4 21/10/4 29/39/4
f 26/41/3 19/6/3 20/8/3 28/40/3
f 25/42/2 18/4/2 19/6/2 26/41/2
f 32/43/1 17/1/1 18/4/1 25/42/1
f 77/44/1 32/43/1 25/42/1 78/45/1
f 78/45/2 25/42/2 26/41/2 79/46/2
f 79/46/3 26/41/3 28/40/3 81/47/3
f 81/47/12 28/40/12 85/40/12 87/47/12
f 82/48/5 29/39/5 27/38/5 80/49/5
f 80/49/6 27/38/6 30/37/6 83/50/6
f 83/50/8 30/37/8 31/35/8 84/51/8
f 84/51/9 31/35/9 32/36/9 77/52/9
f 36/35/13 35/37/13 39/37/13 40/35/13
f 31/35/14 30/37/14 35/37/14 36/35/14
f 24/24/15 31/35/15 36/35/15 34/24/15
f 23/14/16 24/24/16 34/24/16 33/14/16
f 40/35/17 39/37/17 43/37/17 44/35/17
f 35/37/18 33/14/18 37/14/18 39/37/18
f 34/24/19 36/35/19 40/35/19 38/24/19
f 33/14/20 34/24/20 38/24/20 37/14/20
f 42/24/21 44/35/21 48/35/21 46/24/21
f 39/37/22 37/14/22 41/14/22 43/37/22
f 38/24/23 40/35/23 44/35/23 42/24/23
f 37/14/24 38/24/24 42/24/24 41/14/24
f 47/37/25 45/14/25 46/24/25 48/35/25
f 41/14/26 42/24/26 46/24/26 45/14/26
f 44/35/27 43/37/27 47/37/27 48/35/27
f 43/37/28 41/14/28 45/14/28 47/37/28
f 15/53/9 55/54/9 56/55/9 1/56/9
f 13/57/8 54/58/8 55/54/8 15/53/8
f 11/59/6 51/60/6 54/58/6 13/57/6
f 9/61/5 53/62/5 51/60/5 11/59/5
f 7/63/4 52/64/4 53/62/4 9/61/4
f 5/65/3 50/66/3 52/64/3 7/63/3
f 3/67/2 49/68/2 50/66/2 5/65/2
f 1/69/1 56/70/1 49/68/1 3/67/1
f 55/54/9 64/71/9 57/72/9 56/55/9
f 54/58/8 63/73/8 64/71/8 55/54/8
f 51/60/6 60/74/6 63/73/6 54/58/6
f 53/62/5 62/75/5 60/74/5 51/60/5
f 52/64/4 61/76/4 62/75/4 53/62/4
f 50/66/3 59/77/3 61/76/3 52/64/3
f 50/66/29 49/68/29 66/68/29 68/66/29
f 56/70/1 57/78/1 58/79/1 49/68/1
f 68/66/30 66/68/30 70/68/30 72/66/30
f 59/77/31 50/66/31 68/66/31 67/77/31
f 58/79/32 59/77/32 67/77/32 65/79/32
f 49/68/33 58/79/33 65/79/33 66/68/33
f 69/79/34 71/77/34 75/77/34 73/79/34
f 66/68/35 65/79/35 69/79/35 70/68/35
f 65/79/36 67/77/36 71/77/36 69/79/36
f 67/77/37 68/66/37 72/66/37 71/77/37
f 74/68/38 73/79/38 75/77/38 76/66/38
f 71/77/39 72/66/39 76/66/39 75/77/39
f 72/66/40 70/68/40 74/68/40 76/66/40
f 70/68/41 69/79/41 73/79/41 74/68/41
f 64/71/9 84/51/9 77/52/9 57/72/9
f 63/73/8 83/50/8 84/51/8 64/71/8
f 60/74/6 80/49/6 83/50/6 63/73/6
f 62/75/5 82/48/5 80/49/5 60/74/5
f 61/76/4 81/47/4 82/48/4 62/75/4
f 59/77/3 79/46/3 81/47/3 61/76/3
f 58/79/2 78/45/2 79/46/2 59/77/2
f 57/78/1 77/44/1 78/45/1 58/79/1
f 86/39/42 88/48/42 92/48/42 90/39/42
f 28/40/43 29/39/43 86/39/43 85/40/43
f 29/39/44 82/48/44 88/48/44 86/39/44
f 82/48/45 81/47/45 87/47/45 88/48/45
f 90/39/46 92/48/46 96/48/46 94/39/46
f 85/40/47 86/39/47 90/39/47 89/40/47
f 88/48/48 87/47/48 91/47/48 92/48/48
f 87/47/49 85/40/49 89/40/49 91/47/49
f 95/47/50 93/40/50 94/39/50 96/48/50
f 89/40/51 90/39/51 94/39/51 93/40/51
f 92/48/52 91/47/52 95/47/52 96/48/52
f 91/47/53 89/40/53 93/40/53 95/47/53
usemtl Material.005
f 97/80/54 129/81/54 98/82/54
f 98/82/55 129/81/55 99/83/55
f 99/83/56 129/81/56 100/84/56
f 100/84/57 129/81/57 101/85/57
f 101/85/58 129/81/58 102/86/58
f 102/86/59 129/81/59 103/87/59
f 103/87/60 129/81/60 104/88/60
f 104/88/61 129/81/61 105/89/61
f 105/89/62 129/81/62 106/90/62
f 106/90/63 129/81/63 107/91/63
f 107/91/64 129/81/64 108/92/64
f 108/92/65 129/81/65 109/93/65
f 109/93/66 129/81/66 110/94/66
f 110/94/67 129/81/67 111/95/67
f 111/95/68 129/81/68 112/96/68
f 112/96/69 129/81/69 113/97/69
f 113/97/70 129/81/70 114/98/70
f 114/98/71 129/81/71 115/99/71
f 115/99/72 129/81/72 116/100/72
f 116/100/73 129/81/73 117/101/73
f 117/101/74 129/81/74 118/102/74
f 118/102/75 129/81/75 119/103/75
f 119/103/76 129/81/76 120/104/76
f 120/104/77 129/81/77 121/18/77
f 121/18/78 129/81/78 122/105/78
f 122/105/79 129/81/79 123/106/79
f 123/106/80 129/81/80 124/107/80
f 124/107/81 129/81/81 125/108/81
f 125/108/82 129/81/82 126/109/82
f 126/109/83 129/81/83 127/110/83
f 127/110/84 129/81/84 128/111/84
f 128/111/85 129/81/85 97/80/85
f 163/129/54 195/81/54 164/82/54
f 164/82/55 195/81/55 165/130/55
f 165/130/56 195/81/56 166/131/56
f 166/131/57 195/81/57 167/85/57
f 167/85/58 195/81/58 168/132/58
f 168/132/118 195/81/118 169/115/118
f 169/115/60 195/81/60 170/133/60
f 170/133/61 195/81/61 171/134/61
f 171/134/62 195/81/62 172/90/62
f 172/90/63 195/81/63 173/135/63
f 173/135/119 195/81/119 174/136/119
f 174/136/65 195/81/65 175/137/65
f 175/137/66 195/81/66 176/94/66
f 176/94/67 195/81/67 177/118/67
f 177/118/68 195/81/68 178/138/68
f 178/138/69 195/81/69 179/97/69
f 179/97/70 195/81/70 180/139/70
f 180/139/120 195/81/120 181/99/120
f 181/99/72 195/81/72 182/140/72
f 182/140/73 195/81/73 183/141/73
f 183/141/74 195/81/74 184/142/74
f 184/142/75 195/81/75 185/143/75
f 185/143/76 195/81/76 186/123/76
f 186/123/77 195/81/77 187/18/77
f 187/18/78 195/81/78 188/144/78
f 188/144/79 195/81/79 189/106/79
f 189/106/121 195/81/121 190/145/121
f 190/145/81 195/81/81 191/108/81
f 191/108/82 195/81/82 192/146/82
f 192/146/83 195/81/83 193/110/83
f 193/110/84 195/81/84 194/111/84
f 194/111/122 195/81/122 163/129/122
